<?xml version="1.0" standalone="no"?>
<!DOCTYPE svg PUBLIC "-//W3C//DTD SVG 20010904//EN"
 "http://www.w3.org/TR/2001/REC-SVG-20010904/DTD/svg10.dtd">
<svg version="1.0" xmlns="http://www.w3.org/2000/svg"
 width="100.000000pt" height="100.000000pt" viewBox="0 0 100.000000 100.000000"
 preserveAspectRatio="xMidYMid meet">
<metadata>
Created by potrace 1.14, written by Peter Selinger 2001-2017
</metadata>
<g transform="translate(0.000000,100.000000) scale(0.100000,-0.100000)"
fill="#000000" stroke="none">
<path d="M560 885 c-105 -25 -154 -109 -169 -297 -2 -20 -69 -69 -129 -94
-120 -50 -154 -87 -154 -169 0 -56 14 -80 62 -110 21 -13 46 -38 56 -54 22
-37 35 -43 99 -46 28 -2 63 -5 79 -9 52 -10 110 36 151 119 l22 47 27 -54 c33
-64 59 -88 89 -82 85 16 151 33 179 46 21 10 26 19 23 39 -2 15 4 51 12 79 14
47 14 59 0 114 -24 92 -34 155 -36 218 -3 105 -25 149 -96 197 -96 65 -134 75
-215 56z"/>
</g>
</svg>
